<?xml version="1.0" encoding="UTF-8" standalone="no"?>
<!-- Created with Inkscape (http://www.inkscape.org/) -->

<svg
   width="1023.9999"
   height="1023.9999"
   viewBox="0 0 270.93333 270.93333"
   version="1.1"
   id="svg8"
   xml:space="preserve"
   sodipodi:docname="appiconfg.svg"
   inkscape:version="1.4.2 (f4327f4, 2025-05-13)"
   xmlns:inkscape="http://www.inkscape.org/namespaces/inkscape"
   xmlns:sodipodi="http://sodipodi.sourceforge.net/DTD/sodipodi-0.dtd"
   xmlns:xlink="http://www.w3.org/1999/xlink"
   xmlns="http://www.w3.org/2000/svg"
   xmlns:svg="http://www.w3.org/2000/svg"
   xmlns:rdf="http://www.w3.org/1999/02/22-rdf-syntax-ns#"
   xmlns:cc="http://creativecommons.org/ns#"
   xmlns:dc="http://purl.org/dc/elements/1.1/"><sodipodi:namedview
     id="namedview1"
     pagecolor="#505050"
     bordercolor="#eeeeee"
     borderopacity="1"
     inkscape:showpageshadow="0"
     inkscape:pageopacity="0"
     inkscape:pagecheckerboard="0"
     inkscape:deskcolor="#505050"
     inkscape:zoom="0.58764448"
     inkscape:cx="343.74525"
     inkscape:cy="717.27042"
     inkscape:window-width="1920"
     inkscape:window-height="1111"
     inkscape:window-x="-9"
     inkscape:window-y="-9"
     inkscape:window-maximized="1"
     inkscape:current-layer="svg8" /><defs
     id="defs2"><linearGradient
       id="linearGradient60"><stop
         style="stop-color:#ffd587;stop-opacity:1;"
         offset="0"
         id="stop60" /><stop
         style="stop-color:#cfa344;stop-opacity:1;"
         offset="0.23938881"
         id="stop62" /><stop
         style="stop-color:#9a5f00;stop-opacity:1;"
         offset="0.49066213"
         id="stop63" /><stop
         style="stop-color:#ffd699;stop-opacity:1;"
         offset="0.67911714"
         id="stop64" /><stop
         style="stop-color:#f5be39;stop-opacity:1;"
         offset="1"
         id="stop61" /></linearGradient><linearGradient
       xlink:href="#linearGradient60"
       id="linearGradient61"
       x1="209.14703"
       y1="759.01788"
       x2="594.75104"
       y2="369.88654"
       gradientUnits="userSpaceOnUse"
       gradientTransform="matrix(0.43405564,0,0,0.40648919,-32.188261,-97.675685)" /><linearGradient
       inkscape:collect="always"
       xlink:href="#linearGradient60"
       id="linearGradient1"
       gradientUnits="userSpaceOnUse"
       gradientTransform="matrix(0.43405564,0,0,0.40648919,-32.188261,-97.675685)"
       x1="209.14703"
       y1="759.01788"
       x2="594.75104"
       y2="369.88654" /></defs><metadata
     id="metadata5"><rdf:RDF><cc:Work
         rdf:about=""><dc:format>image/svg+xml</dc:format><dc:type
           rdf:resource="http://purl.org/dc/dcmitype/StillImage" /></cc:Work></rdf:RDF></metadata><g
     id="layer2-7"
     transform="matrix(0.50853822,0,0,0.50853822,65.478618,66.9942)"><path
       style="fill:none;stroke:none;stroke-width:0.420046px;stroke-linecap:butt;stroke-linejoin:miter;stroke-opacity:1"
       d="m 93.222815,75.953267 c 0,0 7.906025,-9.291184 27.903585,-13.356063 0,0 26.66342,1.887261 43.40558,27.002479 0,0 -3.41045,6.09735 -12.24658,10.742917 0,0 -26.04335,-25.260392 -59.062585,-24.389333 z"
       id="path10-6" /><path
       style="fill:none;stroke:none;stroke-width:0.420046px;stroke-linecap:butt;stroke-linejoin:miter;stroke-opacity:1"
       d="m 94.928035,75.953267 c 0,0 28.833715,-7.258733 57.202345,23.518296 0,0 9.45621,-7.11354 9.61122,-9.87188 0,0 -6.97589,-16.11439 -33.94935,-25.695908 0,0 21.23773,3.774533 36.89474,25.986268 0,0 -3.25542,5.95218 -12.55661,10.597747 0,0 -23.56303,-23.808642 -57.202345,-24.534523 z"
       id="path11-1" /><path
       style="fill:none;stroke:none;stroke-width:0.420046px;stroke-linecap:butt;stroke-linejoin:miter;stroke-opacity:1"
       d="m 129.6525,62.016491 c 0,0 23.408,4.355247 36.42968,25.986282 0,0 5.73572,-7.11356 4.34055,-14.081957 0,0 -19.84256,-14.807812 -40.77023,-11.904325 z"
       id="path12-4" /><path
       style="fill:none;stroke:none;stroke-width:0.420046px;stroke-linecap:butt;stroke-linejoin:miter;stroke-opacity:1"
       d="m 173.98818,77.114659 c 0,0 0.15503,25.115211 -46.0409,37.164711 0,0 -3.56546,13.93678 0.15503,23.80866 0,0 38.59993,-9.58153 59.52762,-43.407227 0,0 -5.42571,-11.90434 -13.64175,-17.566144 z"
       id="path13-2" /><path
       style="fill:none;stroke:none;stroke-width:0.420046px;stroke-linecap:butt;stroke-linejoin:miter;stroke-opacity:1"
       d="m 106.70955,101.79435 c 0,0 -6.66585,39.6327 10.38633,69.68386 0,0 15.19195,3.77454 25.57829,0.72588 0,0 -25.11322,-22.64726 -18.60239,-59.08611 0,0 -10.07629,-9.29119 -17.36223,-11.32363 z"
       id="path14-3" /><path
       style="fill:none;stroke:none;stroke-width:0.420046px;stroke-linecap:butt;stroke-linejoin:miter;stroke-opacity:1"
       d="m 106.77376,101.897 14.34405,13.78279 c 0,0 -3.25542,13.93677 6.20079,32.6643 0,0 -7.09514,-16.75985 -3.22744,-35.13538 0,0 -13.28688,-11.4569 -17.3174,-11.31171 z"
       id="path15-2" /><path
       style="fill:none;stroke:none;stroke-width:0.420046px;stroke-linecap:butt;stroke-linejoin:miter;stroke-opacity:1"
       d="m 108.616,149.53997 c 0,0 8.51589,4.51727 19.05724,-0.12829 0,0 4.76962,13.64642 14.84591,22.93761 0,0 -12.55661,3.33901 -25.7333,-0.87104 0,0 -5.37949,-10.03393 -8.16985,-21.93825 z"
       id="path16-2" /><path
       style="fill:none;stroke:none;stroke-width:0.420046px;stroke-linecap:butt;stroke-linejoin:miter;stroke-opacity:1"
       d="m 90.432461,78.276063 c 0,0 -9.766253,7.40391 -12.711629,17.56613 0,0 20.927688,-10.16222 49.451348,15.388517 0,0 18.60238,-5.66182 22.78793,-9.43636 0,0 -25.42327,-25.550738 -59.527649,-23.518287 z"
       id="path17-1" /><path
       style="fill:none;stroke:none;stroke-width:0.420046px;stroke-linecap:butt;stroke-linejoin:miter;stroke-opacity:1"
       d="m 75.550553,99.907073 c 0,0 -10.541352,25.986267 7.595975,48.923877 0,0 -13.176689,-26.56697 3.720477,-51.827342 0,0 -5.890757,0.14518 -11.316452,2.903465 z"
       id="path18-6" /><path
       style="fill:none;stroke:none;stroke-width:0.420046px;stroke-linecap:butt;stroke-linejoin:miter;stroke-opacity:1"
       d="m 72.546069,115.73112 c 0,0 -0.759591,9.20953 5.906261,14.65357 0,0 0.818701,10.75201 4.229139,17.57522 0,0 -10.452286,-10.91419 -10.1354,-32.22879 z"
       id="path19-8" /><path
       style="fill:none;stroke:none;stroke-width:0.420046px;stroke-linecap:butt;stroke-linejoin:miter;stroke-opacity:1"
       d="m 90.122423,97.439125 c 0,0 -22.167843,28.454215 1.240158,60.537835 0,0 11.936539,10.16222 22.322869,12.0495 0,0 -17.982315,-30.63186 -9.14617,-69.53867 0,0 -8.836145,-4.210057 -14.416857,-3.048665 z"
       id="path20-5" /><path
       style="fill:none;stroke:none;stroke-width:0.420046px;stroke-linecap:butt;stroke-linejoin:miter;stroke-opacity:1"
       d="m 104.28317,100.65186 c 0,0 -8.330783,-2.668988 -12.825029,-1.950411 0,0 -15.800364,19.232761 -5.56299,50.107971 0,0 -14.82551,-22.18609 4.13799,-51.339825 0,0 6.138466,-0.923874 14.250029,3.182265 z"
       id="path21-7" /><path
       style="fill:none;stroke:none;stroke-width:0.420046px;stroke-linecap:butt;stroke-linejoin:miter;stroke-opacity:1"
       d="m 104.28317,100.65186 c 0,0 -13.373104,35.00503 7.56348,66.00654 0,0 -16.035645,-30.85534 -7.56348,-66.00654 z"
       id="path22-6" /><path
       style="fill:none;stroke:none;stroke-width:0.420046px;stroke-linecap:butt;stroke-linejoin:miter;stroke-opacity:1"
       d="m 82.800488,134.83479 c 0,0 4.841615,8.18917 20.653642,14.86722 0,0 5.50321,15.27963 8.5261,16.87655 l 1.78273,3.4842 c 0,0 -11.54899,-2.64944 -22.361623,-12.0858 0,0 -5.181814,-7.32693 -5.414344,-9.25048 0,0 -2.633391,-7.15719 -3.186505,-13.89169 z"
       id="path23-1" /><path
       style="fill:none;stroke:none;stroke-width:0.420046px;stroke-linecap:butt;stroke-linejoin:miter;stroke-opacity:1"
       d="m 128.41234,140.26564 c 0,0 36.27465,-6.82321 60.1477,-42.826515 0,0 6.20081,13.791585 3.87552,27.147655 0,0 -15.19196,33.82571 -58.13247,29.90598 0,0 -4.18553,-2.75832 -5.89075,-14.22712 z"
       id="path24-8" /><path
       style="fill:none;stroke:none;stroke-width:0.420046px;stroke-linecap:butt;stroke-linejoin:miter;stroke-opacity:1"
       d="m 188.56004,97.584295 c 0,0 -11.1614,32.301355 -56.11718,41.737705 0,0 33.79431,-8.78308 56.11718,-41.737705 z"
       id="path25-9" /><path
       style="fill:none;stroke:none;stroke-width:0.420046px;stroke-linecap:butt;stroke-linejoin:miter;stroke-opacity:1"
       d="m 139.11438,154.78751 c 0,0 22.80163,-2.10943 42.33413,-15.61068 0,0 -15.67071,16.6269 -42.33413,15.61068 z"
       id="path26-2" /><path
       style="fill:none;stroke:none;stroke-width:0.420046px;stroke-linecap:butt;stroke-linejoin:miter;stroke-opacity:1"
       d="m 135.69827,156.96074 c 0,0 6.97589,12.19467 11.93654,14.66264 0,0 31.93409,-5.08111 42.78548,-39.34235 0,0 -17.0522,27.14768 -54.72202,24.67971 z"
       id="path27-7" /><path
       style="fill:none;stroke:none;stroke-width:0.420046px;stroke-linecap:butt;stroke-linejoin:miter;stroke-opacity:1"
       d="m 136.62839,158.70283 c 0,0 38.13489,4.35525 53.48185,-25.40558 0,0 -19.37747,26.85733 -54.41197,23.66349 z"
       id="path28-9" /><path
       style="fill:none;stroke:none;stroke-width:0.420046px;stroke-linecap:butt;stroke-linejoin:miter;stroke-opacity:1"
       d="m 96.061997,69.239753 c 0,0 -24.773127,14.16626 -27.18467,45.783667 -2.411545,31.61745 26.307748,50.09518 26.307748,50.09518 H 81.59274 c 0,0 -29.541407,-34.79973 -40.941432,-64.5694 0,0 -3.836545,-7.134417 3.78174,-11.189257 11.823255,-6.29294 51.628949,-20.12019 51.628949,-20.12019 z"
       id="path29-5" /><path
       style="fill:none;stroke:none;stroke-width:0.420046px;stroke-linecap:butt;stroke-linejoin:miter;stroke-opacity:1"
       d="m 140.56594,58.769043 c 0,0 34.4193,-7.801705 72.34629,-4.516777 0,0 8.98848,-0.205305 8.55002,10.265406 -0.43845,10.470722 -9.64617,59.744618 -36.17314,100.806218 h -14.90773 c 0,0 37.08155,-24.44115 21.92313,-68.367542 C 180.68526,63.285831 140.56594,58.769043 140.56594,58.769043 Z"
       id="path30-4" /><path
       style="fill:none;stroke:none;stroke-width:0.420046px;stroke-linecap:butt;stroke-linejoin:miter;stroke-opacity:1"
       d="m 69.631589,165.46439 c 0,0 -25.550069,-33.47371 -38.57174,-62.21829 0,0 -8.061034,-12.485007 6.820875,-20.034097 14.881907,-7.549081 79.680226,-38.906818 169.901796,-37.164721 0,0 27.28349,-1.451748 22.94294,23.808656 -4.34056,25.260395 -11.47146,56.037402 -32.86421,95.524922 h 29.45378 c 0,0 5.58071,0.58071 3.72046,6.67805 -1.86024,6.09734 -11.16143,36.29368 -11.16143,36.29368 0,0 -0.31004,4.0649 -6.51084,4.0649 h -53.63686 c 0,0 -10.54135,11.03325 -21.08271,11.03325 -10.54135,0 -22.32286,-11.61396 -22.32286,-11.61396 H 63.614024 c 0,0 -5.580717,2.03245 -7.130916,-3.77454 -1.550198,-5.80699 -9.611232,-37.16472 -9.611232,-37.16472 0,0 -0.930119,-5.46683 4.960637,-5.46683 5.890755,0 17.799076,0.0337 17.799076,0.0337 z"
       id="path31-3" /><path
       style="fill:#ffffff;stroke:none;stroke-width:0.300033"
       d="m 108.82346,168.02817 c -5.23999,-2.00479 -10.84291,-5.26146 -15.668695,-9.10732 -2.117795,-1.68776 -5.794685,-7.3737 -6.983017,-10.79853 -0.874947,-2.52165 -2.20479,-7.81439 -2.5754,-10.25005 l -0.209544,-1.37715 2.59271,2.4992 c 4.043206,3.89738 9.758801,7.67898 15.149326,10.02322 l 2.01525,0.87641 1.18597,3.05845 c 2.02486,5.22178 4.237,9.87015 5.58375,11.73308 2.13562,2.95416 3.08236,4.6154 2.62866,4.61245 -0.22397,-0.001 -1.89752,-0.57286 -3.71901,-1.26976 z"
       id="path1-1" /><path
       style="fill:#ffffff;stroke:none;stroke-width:0.300033"
       d="m 99.60685,147.51485 c -5.991495,-2.97836 -11.272051,-6.77948 -14.648748,-10.54463 -1.718287,-1.91596 -1.767612,-2.02025 -1.985474,-4.19748 -0.310363,-3.10169 0.0362,-10.71216 0.630574,-13.84779 1.209388,-6.37998 3.510438,-12.66463 6.325328,-17.27578 l 1.506577,-2.467974 1.978998,-0.0921 c 2.11469,-0.0984 4.271195,0.20856 8.066505,1.148404 l 2.36701,0.58617 -0.58436,1.79192 c -3.29424,10.10141 -4.37169,25.11062 -2.59954,36.2122 0.47704,2.98843 1.75431,8.64716 2.17596,9.64023 0.31593,0.74411 -0.0145,0.64667 -3.23283,-0.95315 z"
       id="path2-2" /><path
       style="fill:#ffffff;stroke:none;stroke-width:0.300033"
       d="m 115.04649,150.97761 c -1.12716,-0.13631 -2.94089,-0.54515 -4.03051,-0.90852 l -1.98113,-0.66068 -0.68316,-3.04704 c -1.79185,-7.99213 -2.74272,-19.24466 -2.46567,-29.17851 0.18998,-6.81173 0.7074,-13.3411 1.11171,-14.02884 0.15423,-0.26235 2.31028,1.64069 6.86671,6.06089 l 6.64188,6.44332 -0.10239,5.26273 c -0.1716,8.82393 1.47665,16.44631 5.43164,25.11898 0.75645,1.65879 1.26201,3.11251 1.12344,3.2305 -0.52917,0.45058 -4.38103,1.45808 -6.60776,1.72833 -2.61404,0.31727 -2.50284,0.31771 -5.30481,-0.0212 z"
       id="path3-3" /><path
       style="fill:#ffffff;stroke:none;stroke-width:0.300033"
       d="M 125.61934,109.40618 C 113.22339,98.728039 99.31376,93.017263 87.177043,93.623193 c -1.961002,0.0979 -4.611842,0.43901 -5.890757,0.75801 -1.278914,0.319 -2.429934,0.58224 -2.557829,0.58497 -0.440058,0.009 -0.22935,-0.64167 1.007708,-3.11383 1.816705,-3.63054 4.360659,-7.0362 7.66186,-10.25715 2.870167,-2.8004 2.94538,-2.84953 4.67055,-3.051399 2.48435,-0.290686 10.406675,0.340499 14.795995,1.178819 13.70889,2.61828 27.46726,9.37575 39.62559,19.462203 l 3.04089,2.522704 -1.02563,0.71086 c -2.26994,1.57325 -9.37089,4.49164 -17.85084,7.33643 l -3.33266,1.11801 z"
       id="path4-3" /><path
       style="fill:#ffcc00;stroke:none;stroke-width:0.300033"
       d="m 147.09224,96.266723 c -10.07248,-9.45511 -19.57394,-15.99864 -31.21072,-18.741325 -5.19995,-1.225589 -12.79358,-1.617396 -18.0081,-1.385687 -2.387315,0.106036 -4.898635,0.260129 -5.580725,0.342319 l -1.240156,0.149448 1.694356,-1.470587 c 3.249822,-2.820616 12.078215,-8.204158 17.760645,-10.316148 3.31163,-1.230821 9.56137,-2.900836 10.85591,-2.900836 1.86274,0 5.51942,0.857441 8.21153,1.9255 13.34562,5.294655 24.57902,13.405234 30.79232,22.104296 2.34515,3.28338 2.44823,3.67736 1.36837,5.2307 -0.90352,1.29969 -6.63984,7.567676 -8.54663,8.915687 l -1.13617,0.80321 z"
       id="path5-4" /><path
       style="fill:#ffcc00;stroke:none;stroke-width:0.300033"
       d="m 99.19473,147.30243 c -6.032505,-3.01749 -12.842615,-8.19717 -15.893812,-11.9009 l -1.341507,-1.6284 -0.14457,-4.45466 c -0.349927,-10.78231 3.073223,-21.41231 8.201408,-29.31807 l 1.119941,-1.726538 h 2.127565 c 2.11364,0 7.087935,0.545057 10.417305,1.414111 l 1.73837,0.453777 -0.73324,2.36195 c -3.33375,10.73857 -5.31428,26.31913 -3.23032,37.83453 0.41574,2.29729 2.22992,7.30643 2.72299,8.78306 0.0933,0.27947 -1.26204,-0.14704 -1.40142,-0.14935 -0.13939,-0.002 -1.7516,-0.75358 -3.58271,-1.66951 z"
       id="path6-1" /><path
       style="fill:#ffcc00;stroke:none;stroke-width:0.300033"
       d="m 134.60211,155.35858 c -1.49639,-0.16617 -1.59474,-0.23563 -2.83373,-2.00099 -1.41297,-2.01329 -3.03129,-7.37957 -3.7269,-10.85764 l -0.4497,-2.2485 1.12506,-0.28016 c 0.61878,-0.15411 3.00855,-0.73272 5.3106,-1.28584 12.39878,-2.97905 24.50383,-8.53302 33.39943,-15.3126 7.74525,-5.90287 15.53249,-16.00689 19.69743,-23.937584 l 1.78323,-3.395533 0.88805,2.610346 c 2.15741,6.341521 4.07971,16.187921 3.78509,22.086891 -0.17679,3.53953 -0.24172,3.82746 -1.30946,5.80698 -1.56988,2.91049 -5.09774,7.15356 -7.76859,10.06741 -6.66397,7.27032 -26.92024,15.86875 -43.66281,18.56686 -2.82865,0.45586 -3.5651,0.47714 -6.2377,0.18036 z"
       id="path7-1" /><path
       style="fill:#ffeeaa;stroke:none;stroke-width:0.150016"
       d="m 129.90556,139.56634 c 17.78656,-7.54234 46.45279,-26.08439 57.78159,-41.098621 0.66989,-0.887804 1.24398,-1.589831 1.27577,-1.560061 0.0842,0.0788 -3.82111,7.038552 -4.76049,8.536442 -7.08739,11.30127 -18.25634,20.85516 -31.52948,26.97023 -2.96081,1.36408 -18.29541,6.02716 -21.43747,7.06879 -3.36338,1.11502 -3.83235,1.14436 -1.32992,0.0832 z"
       id="path8-3" /><path
       style="fill:#ffeeaa;stroke:none;stroke-width:0.150016"
       d="m 142.17639,154.97616 c 10.5279,-2.09712 24.18466,-5.95306 38.41149,-14.95562 1.1829,-0.74852 3.90321,-1.78357 2.29835,-1.1821 -0.15993,0.0599 -8.62903,6.98046 -10.90942,8.38366 -6.55435,4.03314 -16.19902,6.64695 -23.67033,7.88129 -1.80888,0.29884 -5.94235,0.23998 -7.01514,0.22822 -0.80163,-0.008 -0.74871,-0.03 0.88505,-0.35545 z"
       id="path9-8" /><path
       style="fill:#ffeeaa;stroke:none;stroke-width:0.150016"
       d="m 110.84456,165.25838 c -4.15493,-8.0815 -9.72564,-20.75395 -10.75257,-30.79972 -0.29079,-2.84451 0.29903,-12.02022 0.62473,-15.31593 0.30001,-3.03562 2.96441,-12.67312 3.42026,-14.72381 0.34862,-1.56827 0.31059,4.52389 -0.13156,8.43877 -0.39094,3.46138 -1.36148,14.25146 -0.97059,17.89901 0.9584,8.94777 4.02317,21.68876 6.62939,29.76081 0.54137,1.67677 1.30215,3.86326 1.69062,4.85886 0.38846,0.99561 0.68557,1.86839 0.66026,1.93952 -0.0253,0.0712 -0.55197,-0.85474 -1.17034,-2.05751 z"
       id="path32-7" /><path
       style="fill:#ffeeaa;stroke:none;stroke-width:0.150016"
       d="m 80.894885,138.13417 c -1.157825,-3.47191 -0.598887,-5.01883 -0.93666,-8.59764 -0.235971,-2.50018 0.362002,-7.68966 0.70132,-9.95829 0.639625,-4.27644 1.897596,-8.371 3.418618,-11.99992 1.006727,-2.40189 3.704332,-7.50988 4.932301,-9.413328 l 0.842897,-1.306564 2.072274,0.0218 c 2.23616,0.0236 9.470285,0.917487 13.078695,2.914715 1.114,0.616577 -5.22951,-0.674167 -8.061033,-1.132314 -1.090582,-0.17647 -2.504972,-0.289797 -3.642972,-0.291917 l -1.860235,-0.004 -0.39154,0.435047 c -1.14204,1.268981 -3.42693,5.393911 -4.786475,8.641051 -1.601213,3.82434 -2.733249,7.8732 -3.413119,12.20743 -0.476723,3.03916 -0.629262,5.16522 -0.63017,8.78308 -0.0013,4.87956 -0.182633,6.93241 0.85535,11.53634 0.220504,0.97802 2.849081,10.5914 2.809786,10.62819 -0.03929,0.0368 -3.551648,-7.35776 -3.826388,-8.18161 z"
       id="path33-4" /><path
       style="fill:#ffeeaa;stroke:none;stroke-width:0.150016"
       d="m 147.20849,96.925898 c -8.49671,-6.893635 -18.59611,-12.481795 -28.63992,-16.044595 -5.77725,-2.04935 -18.01505,-3.840799 -23.970925,-4.413173 -1.22617,-0.117836 -2.25815,-0.241174 -2.2933,-0.274099 -0.13874,-0.129918 8.359915,-0.881487 9.938245,-0.793127 8.02229,0.44913 17.44459,2.268511 24.77456,5.644859 6.26701,2.88672 11.50518,6.31295 17.53296,11.46811 2.01502,1.72331 7.8005,8.333977 7.67759,8.430307 -0.0322,0.0252 -3.74029,-2.980668 -5.01921,-4.018282 z"
       id="path34-2" /><path
       style="fill:#aa8800;stroke:none;stroke-width:0.150016"
       d="m 152.00442,100.84384 c 0,-0.0788 1.51532,-1.368547 2.21873,-1.923391 4.59326,-3.623176 7.16223,-7.157396 7.69153,-8.811826 0.15252,-0.47675 0.11975,-0.62174 -0.32853,-1.4534 -3.21279,-5.96028 -9.70458,-12.128773 -17.52971,-17.018542 -1.88037,-1.174998 -12.26064,-6.654935 -13.64521,-7.309464 -0.52693,-0.249104 -0.92341,-0.485328 -0.88111,-0.524951 0.11963,-0.112018 11.8501,3.963546 14.10423,5.224359 7.55833,4.227628 13.29633,10.026198 18.9724,17.113988 2.20554,2.75408 3.02672,3.70588 2.76463,4.1645 -0.91218,1.59617 -5.22926,5.46601 -8.30829,7.703289 -1.55264,1.128164 -5.05867,3.118368 -5.05867,2.835438 z"
       id="path35-7" /><path
       style="fill:#aa8800;stroke:none;stroke-width:0.150016"
       d="m 113.22039,170.76771 c -4.46917,-1.51099 -12.09392,-4.90437 -15.99332,-7.51482 -2.421275,-1.62093 -4.972345,-3.51569 -5.932775,-4.40645 -0.836551,-0.77587 -3.081083,-4.1073 -4.596038,-6.82165 -1.554951,-2.786 -3.516115,-9.12704 -4.417501,-17.03161 0,0 -0.01371,-0.28138 -0.04967,-1.12768 -0.0078,-0.18288 0.375888,0.43552 0.375888,0.43552 3.325469,4.05637 11.063841,10.0112 18.366106,13.48608 l 2.86282,1.32909 0.98771,2.62211 c 2.70274,7.17523 5.27622,12.25315 7.08863,14.29268 0.76838,0.86467 3.42751,5.30713 3.11958,5.29455 -0.10111,-0.005 -0.91619,-0.25514 -1.81143,-0.55782 z"
       id="path36-7" /><path
       style="fill:#2a7fff;stroke:none;stroke-width:0.212156"
       d="m 77.005222,128.52242 c -1.982835,-2.16125 -3.530105,-5.8681 -3.987483,-9.55295 -0.452746,-3.64754 0.299886,-10.25572 1.782285,-15.6486 0.94714,-3.445647 0.787395,-3.23005 3.010823,-4.063444 1.073355,-0.402317 2.585352,-0.886624 3.359995,-1.076234 1.479435,-0.362137 4.870012,-0.920284 4.980918,-0.819947 0.03564,0.0322 -0.2437,0.548557 -0.620735,1.147404 -2.922175,4.641251 -5.28016,10.554661 -6.428069,16.120431 -0.841859,4.08188 -0.311848,6.37978 -0.337045,10.78806 -0.01276,2.23016 -0.80746,4.0805 -0.828238,4.0805 -0.02075,0 -0.440366,-0.43884 -0.932451,-0.97522 z"
       id="path37-9" /><path
       style="fill:#0066ff;stroke:none;stroke-width:0.212156"
       d="m 115.90243,151.13936 c -3.21327,-0.42432 -6.5822,-1.36591 -6.9044,-1.92972 -0.26208,-0.45861 -1.20827,-5.10121 -1.73696,-8.52271 -1.74732,-11.30776 -1.97549,-23.93759 -0.64642,-35.78107 0.14295,-1.27373 0.32531,-2.29001 0.40527,-2.25839 0.08,0.0317 3.20257,2.9969 6.93914,6.58954 l 6.79376,6.53206 -0.16208,1.06434 c -0.28899,1.89785 -0.20819,8.75557 0.1356,11.50783 0.76303,6.10873 2.56216,12.15446 5.46985,18.38065 0.54816,1.17375 0.99664,2.24424 0.99664,2.37886 0,0.26855 -3.37518,1.3924 -5.21489,1.73642 -1.31372,0.24567 -5.08359,0.43317 -6.07551,0.30219 z"
       id="path38-3" /><path
       style="fill:#0055d4;stroke:none;stroke-width:0.212156"
       d="m 76.816968,128.7092 c -2.509268,-2.42804 -4.541039,-7.51356 -4.546464,-12.35253 -0.0063,-5.60432 1.814765,-15.69615 3.146795,-16.943584 0.65265,-0.611197 4.858719,-1.761971 7.625338,-2.289958 1.197985,-0.22863 4.800703,-1.080355 4.98673,-1.080355 0.245932,0 -1.637726,2.678826 -2.798821,4.806127 -2.571823,4.712 -4.229511,8.72466 -5.2877,13.66748 -0.797369,3.72452 -1.210061,5.95051 -1.120272,10.53018 l 0.111985,5.71167 z"
       id="path39-1" /><path
       style="fill:#0055d4;stroke:none;stroke-width:0.212156"
       d="m 112.55915,150.65674 c -1.0249,-0.20313 -2.45539,-0.58962 -3.17885,-0.85887 -1.26036,-0.46904 -1.32595,-0.52957 -1.56795,-1.44691 -0.81194,-3.0779 -2.04752,-10.3976 -2.60604,-15.979 -0.37595,-3.75689 -0.0657,-18.40389 0.2192,-22.70843 0.28505,-4.30671 0.67416,-8.14294 0.87965,-8.67253 0.10798,-0.27834 2.14894,0.62216 6.80963,6.05658 l 8.60863,8.15625 -0.0587,5.23535 c -0.0431,3.84634 0.0344,5.93829 0.29209,7.88479 0.7758,5.8601 2.7698,11.88382 5.58025,18.07922 0.57351,1.26424 0.98984,2.42772 0.92517,2.58552 -0.15469,0.3775 -5.42321,1.59653 -7.33025,1.85471 -2.26077,0.30607 -6.48481,0.22718 -8.57285,-0.18668 z"
       id="path40-9" /><path
       style="fill:#0055d4;stroke:none;stroke-width:0.212156"
       d="m 125.09354,110.11905 c -0.28347,-0.30528 -2.18075,-1.0864 -3.39267,-2.06597 -12.05589,-9.744408 -22.34106,-13.564137 -33.750427,-13.141357 -2.907379,0.10768 -6.374224,0.1844 -8.272775,0.81171 -0.521687,0.17238 -2.846182,1.307925 -2.887976,1.268785 -0.156187,-0.14627 1.927103,-5.538545 2.900404,-7.349105 1.92652,-3.58376 3.850833,-7.96685 8.408538,-10.03252 l 2.156467,-1.99897 5.643834,-0.02252 c 13.673405,-0.05443 26.582885,4.60156 39.789105,12.78806 4.8946,3.03415 11.55792,8.024969 14.25003,10.631867 l 0.98654,0.95531 -0.6577,0.50711 c -0.92241,0.71122 -8.0701,4.27724 -11.3452,5.48884 -3.83531,1.41884 -10.55178,3.8808 -10.91287,3.8808 -0.16561,0 -1.53567,-0.23631 -1.81914,-0.54159 z"
       id="path41-8" /><path
       style="fill:#0055d4;stroke:none;stroke-width:0.212156"
       d="m 164.44617,86.595913 c -5.55892,-7.983853 -17.70999,-16.556382 -27.03582,-20.99091 -2.85896,-1.359472 -6.85465,-2.92867 -8.87358,-3.484857 -0.50851,-0.140088 -0.87264,-0.33337 -0.80918,-0.42953 0.16175,-0.245092 10.05995,-0.871364 12.61285,-0.610941 6.08881,0.621134 11.37347,2.386524 17.84701,5.346641 3.06577,1.401874 9.28942,5.014186 11.64712,6.590188 1.41688,0.947126 1.46275,1.005985 1.60287,2.056192 0.26638,1.996605 -1.41619,7.075617 -2.70872,9.931567 -0.52767,1.16594 -2.31522,4.25286 -2.43751,4.20932 -0.0164,-0.006 -0.84667,-1.18379 -1.84504,-2.61767 z"
       id="path42-6" /><path
       style="fill:#0055d4;stroke:none;stroke-width:0.212156"
       d="m 127.01384,137.72042 c -0.68722,-2.21382 -1.21295,-6.56887 -1.34485,-10.23548 -0.141,-3.91923 0.75941,-8.13894 1.51837,-11.88296 l 0.37205,-1.83531 5.59034,-1.76714 c 11.91483,-3.76632 19.77809,-8.71859 27.00106,-14.531845 6.95041,-5.593912 11.97505,-13.127252 13.21392,-19.811419 0.16353,-0.882249 0.3442,-1.64801 0.40151,-1.701673 0.17203,-0.161096 3.94554,3.40349 5.26073,4.96947 1.95516,2.32796 6.20535,7.77986 7.88745,10.81343 l 1.55735,2.80858 -0.83053,1.27149 c -1.47643,2.260339 -5.71546,8.508767 -7.40352,10.601627 -11.86391,14.70886 -30.54547,25.29542 -50.18047,31.63587 -1.39034,0.44897 -2.56349,0.8163 -2.607,0.8163 -0.0435,0 -0.2399,-0.51793 -0.43641,-1.15094 z"
       id="path43-5" /><path
       style="fill:#0055d4;stroke:none;stroke-width:0.212156"
       d="m 145.93848,171.44724 c -1.14048,-0.83223 -5.33307,-6.15003 -7.09432,-8.40558 -0.97822,-1.25274 -3.75903,-5.96821 -3.75898,-6.1503 1e-5,-0.0483 1.99775,-0.0933 4.43943,-0.0999 9.58191,-0.0263 21.42596,-1.29899 29.32216,-4.63111 7.72759,-3.26098 17.26853,-14.45777 21.85132,-20.76456 0.59354,-0.81682 1.11378,-1.45272 1.15609,-1.4131 0.13504,0.12646 -1.31369,3.48198 -2.09962,6.13612 -3.50831,11.84772 -15.33665,23.53318 -23.53857,28.56968 -4.37531,2.68672 -11.62549,5.62606 -16.05868,6.79947 -3.21352,0.85057 -2.99449,0.85269 -4.21883,-0.0407 z"
       id="path44-0" /><path
       style="fill:#aaccff;stroke:none;stroke-width:0.212156"
       d="m 142.07603,157.81108 c -1.89326,-0.0493 -5.45436,-0.15275 -6.94037,-1.11012 l 5.97182,-0.0514 c 10.15193,-0.0873 17.60293,-1.85129 26.61526,-6.22391 6.25654,-3.03555 13.25705,-8.03519 17.57521,-12.55191 0.74566,-0.77994 1.4039,-1.37297 1.46276,-1.31784 0.19381,0.18149 -2.50645,3.68332 -4.36872,5.66556 -7.75937,8.25921 -16.48001,13.24624 -30.20681,14.86372 -2.72062,0.32059 -8.17115,0.90013 -10.10915,0.72583 z"
       id="path45-2" /><path
       style="fill:#aaccff;stroke:none;stroke-width:0.212156"
       d="m 125.19544,141.30581 c 0,-0.0663 -0.35124,-1.25959 -0.78054,-2.65189 -2.13752,-6.93243 -3.88488,-14.18466 -3.37468,-19.7821 0.13644,-1.49682 0.29659,-2.83989 0.35589,-2.98462 0.0611,-0.1492 -5.22264,-4.89578 -8.95462,-8.49055 -3.62017,-3.48708 -6.53386,-6.38533 -6.47488,-6.44058 0.16303,-0.15267 2.86966,0.59503 4.84778,1.8345 1.94071,1.21604 10.42845,7.06561 12.5995,8.9522 l 1.38401,1.20267 -0.33351,2.05308 c -1.16665,7.18193 -1.17087,15.84444 0.42819,23.55876 0.30098,1.45207 0.49226,2.69162 0.42506,2.75455 -0.0672,0.063 -0.1222,0.0603 -0.1222,-0.006 z"
       id="path46-8" /><path
       style="fill:#0044aa;stroke:none;stroke-width:0.212156"
       d="m 128.78226,174.18646 c -1.90423,-0.18207 -9.52294,-1.39164 -11.45483,-1.78971 l -1.20577,-0.24846 -0.92474,-1.64142 c -1.38791,-2.46356 -3.12987,-8.75556 -4.36801,-12.21478 -1.13587,-3.1735 -3.05909,-9.19775 -2.89895,-9.34772 0.0497,-0.0466 0.97531,0.60538 1.68841,0.83714 2.46611,0.80149 6.07667,0.91298 9.02445,0.90911 3.48167,-0.005 5.81817,-0.44599 9.31732,-1.76026 0.25278,-0.0949 0.54992,0.40961 1.2845,2.18107 2.74261,6.61392 9.0979,15.97023 13.32648,20.16805 l 1.38241,1.37236 -1.14572,0.23521 c -3.14883,0.64644 -9.70796,1.71224 -14.02555,1.29941 z"
       id="path47-6" /><path
       style="fill:#0044aa;stroke:none;stroke-width:0.212156"
       d="m 78.769689,145.1965 c -2.942095,-4.81471 -5.062583,-12.57413 -6.132151,-18.75281 -0.582417,-3.36449 -0.642716,-11.17325 -0.347033,-9.21321 0.298817,1.98085 1.414705,6.98492 2.584949,8.44942 l 4.095698,5.1255 0.220191,2.22044 c 0.3273,3.30055 1.403246,7.28926 2.186147,9.89226 0.356347,1.18479 2.507618,6.6488 2.222904,6.63313 -0.05374,-0.002 -4.21649,-3.34958 -4.830705,-4.35473 z"
       id="path48-0" /><path
       style="fill:url(#linearGradient1);stroke:#000000;stroke-width:1.41136;stroke-dasharray:none;stroke-opacity:0.0791506"
       d="m 136.16332,228.31103 c -5.0447,-0.8713 -11.05785,-4.14683 -17.69898,-9.64113 l -2.04198,-1.68936 H 87.729692 59.037024 l -0.88767,-1.08881 c -0.939192,-1.152 -3.084351,-8.73632 -8.150705,-28.81718 -2.899831,-11.49369 -3.013841,-17.73273 -2.332516,-19.07733 1.033413,-2.03945 0.951124,-2.02523 12.290568,-2.12623 5.592482,-0.0498 10.168157,-0.15346 10.168157,-0.23031 0,-0.0768 -2.005476,-2.91057 -4.45661,-6.29712 -13.811321,-19.0821 -25.261319,-37.61875 -32.969087,-53.37436 -2.98748,-6.106767 -3.283914,-7.142901 -3.135836,-10.960907 0.110329,-2.84459 0.20165,-3.22861 1.168278,-4.91269 1.281672,-2.23294 3.882003,-4.54849 7.097419,-6.32012 2.995482,-1.65045 15.348464,-7.368793 20.669344,-9.568075 28.347106,-11.71678 62.555574,-20.649107 94.407114,-24.651073 17.22831,-2.164645 28.0987,-2.821722 46.57138,-2.815089 12.33374,0.0045 13.42905,0.04628 15.96705,0.61012 7.61491,1.691707 12.82033,6.036539 14.50982,12.110984 0.73361,2.637609 0.60429,8.276354 -0.30287,13.206697 -6.17526,33.561913 -15.52823,60.955733 -30.18558,88.410133 -1.00735,1.88685 -1.92928,3.72462 -2.04872,4.08392 l -0.21719,0.65329 h 15.07017 c 14.48286,0 15.11777,0.0228 16.29159,0.58355 1.38765,0.66296 2.16433,1.83763 2.16433,3.27341 0,1.1772 -1.08427,10.50865 -7.14581,30.30791 -5.07548,16.57837 -5.01791,16.44964 -7.60837,17.01232 -0.67607,0.14686 -13.33196,0.26653 -28.59526,0.27039 l -27.3824,0.007 -2.69146,2.25921 c -3.51166,2.94769 -5.63471,4.43283 -8.62142,6.03099 -4.19763,2.24612 -9.14347,3.33266 -12.51742,2.74993 z m 4.3205,-55.0733 c 1.26788,-0.24441 2.4173,-0.54935 2.55427,-0.67762 0.13698,-0.12828 -0.8869,-1.53476 -2.27527,-3.12553 -9.04201,-10.36017 -14.54465,-22.11347 -16.57886,-35.41145 -0.65015,-4.25007 -0.67064,-13.97573 -0.0385,-18.2417 l 0.42282,-2.85319 -1.87599,-1.62775 c -6.04626,-5.24621 -15.24402,-10.76357 -16.28572,-9.76912 -0.15152,0.14464 -0.50949,2.81079 -0.7955,5.92479 -0.41128,4.4779 -0.48628,7.72608 -0.35867,15.5337 0.2074,12.68974 0.98502,19.07192 3.48595,28.61035 1.96234,7.48427 6.47552,18.94342 7.90546,20.07232 0.61306,0.48399 4.65173,1.4849 7.98835,1.97976 2.61137,0.38729 13.11744,0.11249 15.8516,-0.41456 z m 11.48309,-2.26666 c 14.80054,-4.37495 27.52925,-14.76681 34.58726,-28.23745 2.05331,-3.91887 4.61846,-10.29969 4.27126,-10.62483 -0.37338,-0.34966 -0.70834,-0.0609 -2.72571,2.34987 -5.92464,7.07994 -13.33006,12.73339 -21.70751,16.57198 -8.39295,3.84569 -16.30261,5.48642 -26.50841,5.49877 -2.13151,0.002 -4.07309,0.12183 -4.31461,0.26499 -0.35691,0.21157 -0.18812,0.65921 0.90158,2.39095 2.79424,4.44055 5.79851,8.31095 8.25524,10.63525 2.89306,2.7371 2.2298,2.63172 7.2409,1.15047 z m -37.8164,-0.80747 c 0,-0.16411 -0.681,-1.69934 -1.51331,-3.4116 -4.46156,-9.1785 -7.61855,-20.00364 -9.20616,-31.56747 -0.6649,-4.84295 -0.90906,-15.60479 -0.47103,-20.75999 0.19677,-2.31553 0.71545,-6.33772 1.15262,-8.93818 0.43719,-2.60046 0.72173,-4.90662 0.63233,-5.12481 -0.19729,-0.481467 -4.44506,-2.047568 -7.60917,-2.805405 -1.298295,-0.310967 -3.362825,-0.552547 -4.721885,-0.552547 -2.363002,0 -2.431573,0.0204 -3.18786,0.948964 -1.301909,1.598491 -4.736145,8.578998 -6.055787,12.309148 -2.615012,7.39166 -3.554981,14.63932 -2.841949,21.91288 0.61616,6.2854 2.132667,11.15133 5.372072,17.23706 3.026952,5.6866 4.677089,8.03823 7.142324,10.17858 4.172315,3.62246 12.767255,8.47917 17.905905,10.11802 2.51177,0.80108 3.4019,0.92022 3.4019,0.45535 z m 74.41091,-9.06539 c 12.84914,-21.36874 23.35187,-47.80726 29.7293,-74.837537 2.97268,-12.59954 4.22895,-22.925847 3.19726,-26.281091 -0.92693,-3.01459 -3.54755,-5.337726 -6.69077,-5.931295 -5.09794,-0.962683 -26.96857,-1.334715 -36.93354,-0.628249 -10.94979,0.776289 -22.92966,2.211452 -31.95317,3.827933 -7.3082,1.30921 -7.36073,1.450236 -1.06606,2.862116 14.09357,3.161152 25.11002,8.712664 33.83816,17.052019 7.51311,7.178477 11.77512,14.468997 14.48634,24.780074 3.88804,14.78669 2.45966,28.41747 -4.31473,41.17492 -3.87637,7.29996 -7.16907,11.41713 -14.40273,18.00911 -2.6199,2.38749 -4.67953,4.41948 -4.57696,4.51553 0.10263,0.0961 3.71074,0.17465 8.01815,0.17465 h 7.83168 z m -92.883295,4.17537 c 0.0916,-0.13884 -0.6326,-0.84433 -1.60941,-1.56775 -2.664291,-1.97317 -10.35508,-9.34843 -12.332143,-11.82621 -5.245902,-6.5745 -9.047586,-13.91496 -11.059648,-21.35444 l -0.633473,-3.61063 -0.429519,-4.83135 c -0.65812,-7.40273 0.108626,-11.85395 0.773227,-14.77221 2.049836,-9.000808 6.267901,-17.910637 11.752516,-24.824857 2.166202,-2.73084 7.426132,-7.795169 11.08314,-10.670996 1.5347,-1.206868 2.836872,-2.304733 2.893712,-2.439694 0.32691,-0.776213 -3.278992,0.429846 -20.565973,6.878644 -20.459366,7.632246 -30.873749,12.172966 -33.51891,14.614426 -1.732572,1.59915 -2.25768,2.66507 -2.496658,5.06794 -0.212162,2.133259 0.555691,4.521757 3.60998,11.229357 7.138059,15.67605 19.081543,34.22419 35.101994,54.5131 l 3.037756,3.84713 h 7.113403 c 3.912366,0 7.188376,-0.11366 7.280006,-0.25246 z M 146.4393,155.0667 c 16.01821,-1.48228 28.70786,-7.82164 39.17466,-19.57044 2.20564,-2.47581 5.47813,-7.11708 6.51816,-9.2445 0.4284,-0.87634 0.91365,-2.61922 1.0845,-3.89531 0.40308,-3.01035 -0.0829,-10.68936 -0.92001,-14.53601 -1.12964,-5.19123 -3.21935,-11.261359 -3.76759,-10.944062 -0.16155,0.0935 -1.11086,1.303624 -2.10955,2.689165 -13.64199,18.926297 -34.76654,33.905537 -55.93609,39.663847 l -2.53611,0.68984 0.091,0.97168 c 0.16277,1.74015 1.62165,6.86059 2.56514,9.00329 0.50688,1.1511 1.47662,2.78137 2.155,3.62281 l 1.23342,1.52989 2.09343,0.10158 c 4.59915,0.22318 7.288,0.20194 10.35414,-0.0818 z m -62.982735,-6.25419 c 0,-0.09 -0.556295,-1.69443 -1.236213,-3.56542 -2.490454,-6.85322 -3.773983,-13.83904 -3.538399,-21.51451 0.277713,-9.04799 2.111343,-14.79408 6.650827,-23.27464 1.038868,-1.940801 1.774185,-3.624722 1.634032,-3.742049 -0.747534,-0.625788 -9.402431,1.579781 -10.93345,2.786232 -1.091536,0.860137 -1.816448,2.817247 -2.867649,7.742037 -0.60937,2.85487 -0.695061,4.14597 -0.688563,10.37422 0.0079,7.64469 0.293326,9.94617 1.862411,15.02146 1.669708,5.40079 4.643427,11.38959 7.426896,14.95713 0.935329,1.1988 1.690108,1.74164 1.690108,1.21554 z m 48.434545,-11.43458 c 10.92419,-3.52759 23.0101,-9.83905 32.64085,-17.0456 4.34839,-3.25383 12.35437,-10.71622 15.52875,-14.4744 2.27687,-2.6956 5.90316,-7.547698 7.53244,-10.078657 l 0.69468,-1.07915 -1.63504,-2.98574 c -3.01801,-5.51118 -7.59316,-11.3283 -10.91564,-13.878817 -1.27938,-0.982103 -2.04619,-1.38496 -2.06308,-1.083835 -0.0623,1.109957 -1.41218,5.904332 -2.14494,7.618082 -3.72787,8.71866 -12.80203,17.025147 -24.66943,22.582467 -4.83289,2.26317 -6.67156,2.97044 -13.33171,5.12822 l -5.89075,1.90852 -0.38297,1.45175 c -0.79662,3.01983 -1.094,6.28019 -1.08578,11.90432 0.007,4.96174 0.10332,6.14052 0.65969,8.09843 0.55177,1.94162 1.08129,3.08003 1.43263,3.08003 0.0455,0 1.67906,-0.51553 3.6303,-1.14562 z m -0.49035,-27.04265 c 7.45592,-2.40412 16.18156,-6.09976 18.36077,-7.77647 l 1.04159,-0.80142 -3.36688,-2.840391 C 135.47918,88.829753 121.51842,81.877923 107.63967,79.100133 103.93959,78.359567 98.18947,77.868468 93.011695,77.850792 l -3.00148,-0.01056 -2.665154,2.688171 c -4.526809,4.56589 -7.477085,8.8281 -9.36939,13.53578 -0.409358,1.01842 -0.665859,1.92511 -0.570002,2.01488 0.09586,0.0897 1.112853,-0.11816 2.259984,-0.46209 3.367239,-1.00954 6.333215,-1.31696 10.921826,-1.13208 10.477171,0.42216 20.716901,4.796243 32.104281,13.713947 2.33305,1.82704 4.41957,3.32191 4.63673,3.32191 0.21716,0 2.04968,-0.5336 4.07227,-1.18577 z m 25.3987,-12.041718 c 3.41367,-2.253859 8.19756,-7.124379 8.19756,-8.345999 0,-0.5847 -2.83761,-4.59408 -4.97254,-7.02591 -2.25995,-2.57424 -7.94323,-7.766674 -10.37442,-9.478435 -6.90584,-4.862263 -14.29357,-8.252309 -22.11579,-10.148378 -4.61284,-1.118122 -6.99976,-1.14632 -10.71473,-0.12654 -8.66033,2.37728 -15.45224,5.588425 -21.045055,9.949888 -2.36479,1.844143 -3.24811,2.818857 -2.78503,3.073192 0.12835,0.0705 1.76806,0.218923 3.643802,0.329827 7.433483,0.439524 12.888773,1.431985 19.488413,3.545476 12.08029,3.86863 24.01166,10.58707 33.32028,18.762326 l 2.58224,2.267841 1.44828,-0.78143 c 0.79654,-0.429797 2.2937,-1.339634 3.32699,-2.021858 z M 167.9352,86.143753 c 1.81329,-3.04181 3.05521,-6.93179 3.08323,-9.657348 0.0219,-2.13505 -0.0514,-2.44604 -0.73865,-3.132614 -2.12393,-2.121761 -12.96522,-7.546392 -18.53036,-9.271983 -6.30953,-1.956407 -9.38872,-2.517497 -14.83699,-2.703589 -8.04025,-0.274615 -9.43991,0.363199 -4.23704,1.930814 3.99268,1.202985 11.6098,4.743593 15.19997,7.065275 6.33195,4.094731 11.88073,9.406295 16.08712,15.399385 2.28896,3.26122 2.25134,3.25771 3.97272,0.37006 z"
       id="path55-2"
       sodipodi:nodetypes="cscccsssssssssscscssssscsssssccssccssssscsssssssssssssscsssssssssssssssssssssssssssssssscssssccsssssssssscsscssscsssccsscsccssssssscssssssscsssssscscssscscssccsscssssccssssssssssscsssscssssss" /><path
       style="fill:#ffffff;fill-opacity:1;stroke:#ffffff;stroke-width:2.53873;stroke-dasharray:none;stroke-opacity:1"
       d="m 73.838791,94.773022 c 5.26414,-12.920156 21.95708,-31.895116 46.107929,-34.551582 17.19635,-1.891507 2.7184,-1.508947 21.19107,-1.502314 12.33374,0.0045 23.93125,8.798111 26.46925,9.361951 7.61491,1.691707 20.47818,18.289103 23.69924,25.019936 1.1818,2.469518 5.49397,21.978897 5.38582,26.990837 -0.25745,11.93101 -20.45134,77.24334 -91.72268,51.05973 0,0 -50.938359,-19.91203 -31.130629,-76.378558 z m 66.724439,78.408828 c 1.26788,-0.24441 2.4173,-0.54935 2.55427,-0.67762 0.13698,-0.12828 -0.8869,-1.53476 -2.27527,-3.12553 -9.04201,-10.36017 -14.54465,-22.11347 -16.57886,-35.41145 -0.65015,-4.25007 -0.67064,-13.97573 -0.0385,-18.2417 l 0.42282,-2.85319 -1.87599,-1.62775 c -6.04626,-5.24621 -15.24402,-10.76357 -16.28572,-9.76912 -0.15152,0.14464 -0.50949,2.81079 -0.7955,5.92479 -0.41128,4.4779 -0.48628,7.72608 -0.35867,15.5337 0.2074,12.68974 0.98502,19.07192 3.48595,28.61035 1.96234,7.48427 6.47552,18.94342 7.90546,20.07232 0.61306,0.48399 4.65173,1.4849 7.98835,1.97976 2.61137,0.38729 13.11744,0.11249 15.8516,-0.41456 z m 11.48309,-2.26666 c 14.80054,-4.37495 27.52925,-14.76681 34.58726,-28.23745 2.05331,-3.91887 4.61846,-10.29969 4.27126,-10.62483 -0.37338,-0.34966 -0.70834,-0.0609 -2.72571,2.34987 -5.92464,7.07994 -13.33006,12.73339 -21.70751,16.57198 -8.39295,3.84569 -16.30261,5.48642 -26.50841,5.49877 -2.13151,0.002 -4.07309,0.12183 -4.31461,0.26499 -0.35691,0.21157 -0.18812,0.65921 0.90158,2.39095 2.79424,4.44055 5.79851,8.31095 8.25524,10.63525 2.89306,2.7371 2.2298,2.63172 7.2409,1.15047 z m -37.8164,-0.80747 c 0,-0.16411 -0.681,-1.69934 -1.51331,-3.4116 -4.46156,-9.1785 -7.61855,-20.00364 -9.20616,-31.56747 -0.6649,-4.84295 -0.90906,-15.60479 -0.47103,-20.75999 0.19677,-2.31553 0.71545,-6.33772 1.15262,-8.93818 0.43719,-2.60046 0.72173,-4.90662 0.63233,-5.12481 -0.19729,-0.481474 -4.44506,-2.047577 -7.609169,-2.805417 -1.29829,-0.31096 -3.36282,-0.55254 -4.72188,-0.55254 -2.363,0 -2.43157,0.0204 -3.18786,0.94896 -1.30191,1.59849 -4.73615,8.579007 -6.05579,12.309157 -2.61501,7.39166 -3.55498,14.63932 -2.84195,21.91288 0.61616,6.2854 2.13267,11.15133 5.37207,17.23706 3.02696,5.6866 4.67709,8.03823 7.14233,10.17858 4.17231,3.62246 12.767249,8.47917 17.905899,10.11802 2.51177,0.80108 3.4019,0.92022 3.4019,0.45535 z m 32.28879,-15.0969 c 16.01821,-1.48228 28.70786,-7.82164 39.17466,-19.57044 2.20564,-2.47581 5.47813,-7.11708 6.51816,-9.2445 0.4284,-0.87634 0.91365,-2.61922 1.0845,-3.89531 0.40308,-3.01035 -0.0829,-10.68936 -0.92001,-14.53601 -1.12964,-5.19123 -3.21935,-11.261367 -3.76759,-10.944067 -0.16155,0.0935 -1.11086,1.30362 -2.10955,2.68916 -13.64199,18.926307 -34.76654,33.905547 -55.93609,39.663857 l -2.53611,0.68984 0.091,0.97168 c 0.16277,1.74015 1.62165,6.86059 2.56514,9.00329 0.50688,1.1511 1.47662,2.78137 2.155,3.62281 l 1.23342,1.52989 2.09343,0.10158 c 4.59915,0.22318 7.288,0.20194 10.35414,-0.0818 z m -62.982729,-6.25419 c 0,-0.09 -0.5563,-1.69443 -1.23621,-3.56542 -2.49046,-6.85322 -3.77399,-13.83904 -3.5384,-21.51451 0.27771,-9.04799 2.11134,-14.79408 6.65082,-23.27464 1.03887,-1.940807 1.77419,-3.624727 1.63404,-3.742057 -0.74754,-0.62579 -9.40244,1.57978 -10.93345,2.78623 -1.09154,0.860147 -1.81645,2.817257 -2.86765,7.742047 -0.60937,2.85487 -0.69507,4.14597 -0.68857,10.37422 0.008,7.64469 0.29333,9.94617 1.86241,15.02146 1.66971,5.40079 4.64343,11.38959 7.4269,14.95713 0.93533,1.1988 1.69011,1.74164 1.69011,1.21554 z m 48.434539,-11.43458 c 10.92419,-3.52759 23.0101,-9.83905 32.64085,-17.0456 4.34839,-3.25383 12.35437,-10.71622 15.52875,-14.4744 2.27687,-2.6956 5.90316,-7.547707 7.53244,-10.078667 l 0.69468,-1.07915 -1.63504,-2.98574 c -3.01801,-5.51118 -7.59316,-11.328298 -10.91564,-13.878815 -1.27938,-0.982103 -2.04619,-1.38496 -2.06308,-1.083835 -0.0623,1.109957 -1.41218,5.904332 -2.14494,7.61808 -3.72787,8.71866 -12.80203,17.025157 -24.66943,22.582477 -4.83289,2.26317 -6.67156,2.97044 -13.33171,5.12822 l -5.89075,1.90852 -0.38297,1.45175 c -0.79662,3.01983 -1.094,6.28019 -1.08578,11.90432 0.007,4.96174 0.10332,6.14052 0.65969,8.09843 0.55177,1.94162 1.08129,3.08003 1.43263,3.08003 0.0455,0 1.67906,-0.51553 3.6303,-1.14562 z m -0.49035,-27.04265 c 7.45592,-2.40412 16.18156,-6.09976 18.36077,-7.77647 l 1.04159,-0.80142 -3.36688,-2.840397 C 135.55859,88.773863 121.59783,81.822035 107.71908,79.044245 104.019,78.303679 98.268881,77.81258 93.091111,77.794904 l -3.00148,-0.01056 -2.66516,2.688171 c -4.52681,4.565888 -7.47708,8.828098 -9.36939,13.535778 -0.40935,1.01842 -0.66586,1.92511 -0.57,2.01488 0.0959,0.0897 1.11285,-0.11816 2.25999,-0.46209 3.36723,-1.00954 6.33321,-1.31696 10.92182,-1.13208 10.477169,0.42216 20.716899,4.79625 32.104279,13.713957 2.33305,1.82704 4.41957,3.32191 4.63673,3.32191 0.21716,0 2.04968,-0.5336 4.07227,-1.18577 z m 25.3987,-12.041727 c 3.41367,-2.25386 8.19756,-7.12438 8.19756,-8.346 0,-0.5847 -2.83761,-4.59408 -4.97254,-7.025908 -2.25995,-2.57424 -7.94323,-7.766674 -10.37442,-9.478435 -6.90584,-4.862263 -14.29357,-8.252309 -22.11579,-10.148378 -4.61284,-1.118122 -6.99976,-1.14632 -10.71473,-0.12654 -8.66033,2.37728 -15.45224,5.588425 -21.045049,9.949888 -2.36479,1.844143 -3.24811,2.818857 -2.78503,3.073192 0.12835,0.0705 1.76806,0.218923 3.6438,0.329827 7.433479,0.439524 12.888769,1.431985 19.488409,3.545476 12.08029,3.868628 24.01166,10.587068 33.32028,18.762328 l 2.58224,2.267847 1.44828,-0.78143 c 0.79654,-0.429804 2.2937,-1.339647 3.32699,-2.021867 z m 11.13574,-12.14981 c 1.81329,-3.041808 3.05521,-6.931788 3.08323,-9.657346 0.0219,-2.13505 -0.0514,-2.44604 -0.73865,-3.132614 -2.12393,-2.121761 -12.96522,-7.546392 -18.53036,-9.271983 -6.30953,-1.956407 -9.38872,-2.517497 -14.83699,-2.703589 -8.04025,-0.274615 -9.43991,0.363199 -4.23704,1.930814 3.99268,1.202985 11.6098,4.743593 15.19997,7.065275 6.33195,4.094731 11.88073,9.406295 16.08712,15.399383 2.28896,3.26122 2.25134,3.25771 3.97272,0.37006 z"
       id="path55-5"
       sodipodi:nodetypes="cscsssccssssscsssssssssssssscssssssssssssssssssscssscsssccsscsccssssssssssssssscsssssscscssscscssccsscssssccssssssssssscsssscssssss" /></g><path
     style="font-stretch:condensed;font-size:40px;line-height:1.25;font-family:Impact;-inkscape-font-specification:'Impact Condensed';text-align:center;letter-spacing:2.94744px;word-spacing:0px;text-anchor:middle;white-space:pre;fill:#ffffff;fill-opacity:1;stroke:#000000;stroke-width:0.652741;stroke-linejoin:round;stroke-dasharray:none;stroke-opacity:0.0791506"
     d="m 107.3625,161.20798 -1.52312,10.79124 h -4.54802 l -1.729539,-10.79124 h 3.160129 c 0.36537,2.97276 0.62635,5.4856 0.78293,7.53854 0.15658,-2.07516 0.32027,-3.91923 0.4911,-5.53226 l 0.2064,-2.00628 z m 8.43348,6.31878 c 0,1.08423 -0.0285,1.85297 -0.0855,2.30622 -0.0522,0.4488 -0.223,0.85983 -0.51245,1.23309 -0.2847,0.37326 -0.6714,0.65987 -1.16013,0.85984 -0.48873,0.19995 -1.05812,0.29993 -1.70819,0.29993 -0.61683,0 -1.17199,-0.0934 -1.66547,-0.27995 -0.48873,-0.19106 -0.88256,-0.47547 -1.18148,-0.85316 -0.29894,-0.3777 -0.47688,-0.78873 -0.53382,-1.2331 -0.057,-0.44434 -0.0854,-1.22198 -0.0854,-2.33287 v -1.84632 c 0,-1.08423 0.0262,-1.85074 0.0783,-2.29955 0.057,-0.45324 0.22775,-0.8665 0.51245,-1.23976 0.28944,-0.37326 0.67852,-0.65986 1.16725,-0.85982 0.48874,-0.19997 1.05813,-0.29995 1.70818,-0.29995 0.61684,0 1.16963,0.0955 1.65836,0.28661 0.49347,0.18662 0.88968,0.46881 1.18861,0.84652 0.29893,0.37769 0.47687,0.78871 0.5338,1.23307 0.057,0.44438 0.0855,1.22199 0.0855,2.33288 z m -2.99642,-3.54598 c 0,-0.50213 -0.0308,-0.82208 -0.0925,-0.95982 -0.057,-0.14219 -0.17793,-0.2133 -0.36299,-0.2133 -0.15658,0 -0.27758,0.0578 -0.36298,0.1733 -0.0807,0.1111 -0.121,0.44438 -0.121,0.99982 v 5.03902 c 0,0.62653 0.0261,1.01313 0.0783,1.15978 0.057,0.14663 0.18507,0.21995 0.38435,0.21995 0.20403,0 0.33452,-0.0844 0.39146,-0.25329 0.057,-0.16884 0.0854,-0.57099 0.0854,-1.20643 z m 8.18436,-2.7728 v 8.63166 h 1.82204 v 2.15958 h -4.81847 v -10.79124 z m 6.61852,0 v 8.63166 h 1.82206 v 2.15958 h -4.81847 v -10.79124 z m 3.6221,0 h 4.99642 v 2.15958 h -1.99999 v 2.04627 h 1.87187 v 2.05294 h -1.87187 v 2.37287 h 2.19927 v 2.15958 h -5.1957 z m 13.51528,0 -2.18504,6.88533 v 3.90591 h -2.77577 v -3.90591 l -2.10676,-6.88533 h 2.75443 c 0.4318,2.10181 0.67378,3.5171 0.72597,4.24584 0.16608,-1.15089 0.44366,-2.56617 0.83274,-4.24584 z m 12.10539,3.97257 h -2.99643 v -0.97982 c 0,-0.61766 -0.0285,-1.00424 -0.0855,-1.15977 -0.057,-0.15553 -0.19217,-0.2333 -0.40568,-0.2333 -0.18507,0 -0.3108,0.0667 -0.37724,0.19996 -0.0665,0.13332 -0.0996,0.47547 -0.0996,1.02648 v 5.179 c 0,0.48434 0.0332,0.80429 0.0996,0.9598 0.0665,0.15109 0.19929,0.22663 0.39857,0.22663 0.21828,0 0.36537,-0.0867 0.4413,-0.25994 0.0807,-0.17332 0.12098,-0.51102 0.12098,-1.01315 v -1.27974 h -0.60498 v -1.63969 h 3.50888 v 5.79221 h -1.8861 l -0.27759,-0.77319 c -0.20402,0.33327 -0.46263,0.58434 -0.7758,0.75319 -0.30841,0.16443 -0.67377,0.24662 -1.09607,0.24662 -0.50296,0 -0.97509,-0.1133 -1.41636,-0.33993 -0.43655,-0.23106 -0.76867,-0.51545 -0.99644,-0.85316 -0.22775,-0.33772 -0.3701,-0.69099 -0.42704,-1.05981 -0.0569,-0.37325 -0.0855,-0.93092 -0.0855,-1.673 v -3.20605 c 0,-1.03091 0.0593,-1.77965 0.17794,-2.24622 0.11862,-0.46659 0.45788,-0.89317 1.01779,-1.27976 0.56465,-0.39103 1.29298,-0.58655 2.18503,-0.58655 0.87781,0 1.60616,0.16886 2.18504,0.50656 0.57889,0.33772 0.9561,0.73986 1.13166,1.20644 0.17556,0.46213 0.26335,1.13534 0.26335,2.01961 z m 9.08114,2.34621 c 0,1.08423 -0.0285,1.85297 -0.0855,2.30622 -0.0521,0.4488 -0.22301,0.85983 -0.51246,1.23309 -0.28468,0.37326 -0.67139,0.65987 -1.16012,0.85984 -0.48873,0.19995 -1.05813,0.29993 -1.70818,0.29993 -0.61684,0 -1.172,-0.0934 -1.66547,-0.27995 -0.48872,-0.19106 -0.88256,-0.47547 -1.18149,-0.85316 -0.29892,-0.3777 -0.47686,-0.78873 -0.53379,-1.2331 -0.057,-0.44434 -0.0855,-1.22198 -0.0855,-2.33287 v -1.84632 c 0,-1.08423 0.0261,-1.85074 0.0783,-2.29955 0.057,-0.45324 0.22774,-0.8665 0.51245,-1.23976 0.28944,-0.37326 0.67852,-0.65986 1.16725,-0.85982 0.48871,-0.19997 1.05811,-0.29995 1.70816,-0.29995 0.61685,0 1.16963,0.0955 1.65835,0.28661 0.49349,0.18662 0.88968,0.46881 1.18861,0.84652 0.29894,0.37769 0.47686,0.78871 0.5338,1.23307 0.057,0.44438 0.0855,1.22199 0.0855,2.33288 z m -2.99642,-3.54598 c 0,-0.50213 -0.0308,-0.82208 -0.0925,-0.95982 -0.057,-0.14219 -0.17794,-0.2133 -0.36298,-0.2133 -0.15658,0 -0.27758,0.0578 -0.36299,0.1733 -0.0807,0.1111 -0.121,0.44438 -0.121,0.99982 v 5.03902 c 0,0.62653 0.0261,1.01313 0.0783,1.15978 0.0569,0.14663 0.18506,0.21995 0.38434,0.21995 0.20404,0 0.33452,-0.0844 0.39146,-0.25329 0.057,-0.16884 0.0855,-0.57099 0.0855,-1.20643 z m 8.26265,-2.7728 -0.46975,8.12509 h -2.22063 l -0.46974,-8.12509 z m -0.23488,8.63166 v 2.15958 h -2.69037 v -2.15958 z"
     id="text1-4"
     aria-label="VOLLEY GO!" /></svg>
